<svg width="30" height="30" viewBox="0 0 30 30" fill="none" xmlns="http://www.w3.org/2000/svg">
<path d="M14.6459 0.00012207C6.57601 0.00012207 0 6.57613 0 14.646C0 22.7159 6.57601 29.2919 14.6459 29.2919C22.7158 29.2919 29.2918 22.7159 29.2918 14.646C29.2918 6.57613 22.7158 0.00012207 14.6459 0.00012207ZM18.7321 15.4223L13.5621 20.5923C13.3424 20.8119 13.0641 20.9145 12.7859 20.9145C12.5076 20.9145 12.2293 20.8119 12.0096 20.5923C11.5849 20.1675 11.5849 19.4645 12.0096 19.0398L16.4034 14.646L12.0096 10.2523C11.5849 9.82752 11.5849 9.12452 12.0096 8.69979C12.4344 8.27506 13.1374 8.27506 13.5621 8.69979L18.7321 13.8698C19.1715 14.2945 19.1715 14.9975 18.7321 15.4223Z" fill="white"/>
</svg>
