<svg id="visual" viewBox="0 0 900 600" width="900" height="600" xmlns="http://www.w3.org/2000/svg" xmlns:xlink="http://www.w3.org/1999/xlink" version="1.1"><path d="M0 416L21.5 427.2C43 438.3 86 460.7 128.8 465.7C171.7 470.7 214.3 458.3 257.2 442.3C300 426.3 343 406.7 385.8 406.8C428.7 407 471.3 427 514.2 427.8C557 428.7 600 410.3 642.8 407.2C685.7 404 728.3 416 771.2 422.2C814 428.3 857 428.7 878.5 428.8L900 429L900 601L878.5 601C857 601 814 601 771.2 601C728.3 601 685.7 601 642.8 601C600 601 557 601 514.2 601C471.3 601 428.7 601 385.8 601C343 601 300 601 257.2 601C214.3 601 171.7 601 128.8 601C86 601 43 601 21.5 601L0 601Z" fill="#0066FF" stroke-linecap="round" stroke-linejoin="miter"></path></svg>